<svg width="91" height="9" viewBox="0 0 91 9" fill="none" xmlns="http://www.w3.org/2000/svg">
<path d="M9 4.5C9 6.98528 6.98528 9 4.5 9C2.01472 9 0 6.98528 0 4.5C0 2.01472 2.01472 0 4.5 0C6.98528 0 9 2.01472 9 4.5Z" fill="white"/>
<circle cx="31.5" cy="4.5" r="4.5" fill="white"/>
<path d="M63.5 4.5C63.5 6.98528 61.4853 9 59 9C56.5147 9 54.5 6.98528 54.5 4.5C54.5 2.01472 56.5147 0 59 0C61.4853 0 63.5 2.01472 63.5 4.5Z" fill="white"/>
<path d="M91 4.5C91 6.98528 88.9853 9 86.5 9C84.0147 9 82 6.98528 82 4.5C82 2.01472 84.0147 0 86.5 0C88.9853 0 91 2.01472 91 4.5Z" fill="white"/>
</svg>
