<svg width="152" height="9" viewBox="0 0 152 9" fill="none" xmlns="http://www.w3.org/2000/svg">
<path d="M9 4.5C9 6.98528 6.98528 9 4.5 9C2.01472 9 0 6.98528 0 4.5C0 2.01472 2.01472 0 4.5 0C6.98528 0 9 2.01472 9 4.5Z" fill="white"/>
<path d="M57 4.5C57 6.98528 54.9853 9 52.5 9C50.0147 9 48 6.98528 48 4.5C48 2.01472 50.0147 0 52.5 0C54.9853 0 57 2.01472 57 4.5Z" fill="white"/>
<path d="M104 4.5C104 6.98528 101.985 9 99.5 9C97.0147 9 95 6.98528 95 4.5C95 2.01472 97.0147 0 99.5 0C101.985 0 104 2.01472 104 4.5Z" fill="white"/>
<path d="M152 4.5C152 6.98528 149.985 9 147.5 9C145.015 9 143 6.98528 143 4.5C143 2.01472 145.015 0 147.5 0C149.985 0 152 2.01472 152 4.5Z" fill="white"/>
</svg>
