<svg width="182" height="9" viewBox="0 0 182 9" fill="none" xmlns="http://www.w3.org/2000/svg">
<path d="M9 4.5C9 6.98528 6.98528 9 4.5 9C2.01472 9 0 6.98528 0 4.5C0 2.01472 2.01472 0 4.5 0C6.98528 0 9 2.01472 9 4.5Z" fill="white"/>
<path d="M73.3887 4.5C73.3887 6.98528 71.374 9 68.8887 9C66.4034 9 64.3887 6.98528 64.3887 4.5C64.3887 2.01472 66.4034 0 68.8887 0C71.374 0 73.3887 2.01472 73.3887 4.5Z" fill="white"/>
<path d="M127.611 4.5C127.611 6.98528 125.597 9 123.111 9C120.626 9 118.611 6.98528 118.611 4.5C118.611 2.01472 120.626 0 123.111 0C125.597 0 127.611 2.01472 127.611 4.5Z" fill="white"/>
<path d="M181.833 4.5C181.833 6.98528 179.819 9 177.333 9C174.848 9 172.833 6.98528 172.833 4.5C172.833 2.01472 174.848 0 177.333 0C179.819 0 181.833 2.01472 181.833 4.5Z" fill="white"/>
</svg>
