<svg xmlns="http://www.w3.org/2000/svg" viewBox="0 0 53.08 49.79"><defs><style>.cls-1{fill:#000;fill-rule:evenodd;}</style></defs><g id="Слой_2" data-name="Слой 2"><g id="лого"><path class="cls-1" d="M4.33,11.28,21.82,49.79l5.2-.25L52.77,5.21C46.12,12.4,32.52,32.57,25.68,41.85,20.18,33.42,8,16.55,4.33,11.28Z"/><path class="cls-1" d="M38.21,17.06,53.08,3.59,50.52.44,6.13,8.11c7.6.86,26.57.1,35.56.11C38.93,15.57,39.82,12.32,38.21,17.06Z"/><path class="cls-1" d="M16.75,23.46,0,3.15,2.57,0,46.94,7.78c-7.6.84-26.57,0-35.56,0C14.12,15.16,15.15,18.72,16.75,23.46Z"/><path class="cls-1" d="M33.41,11.53,30.62,32.71H22.28L19.09,11.53H24.9q1,8.76,1.43,14.82c.29-4.08.6-7.71.91-10.87l.36-4Z"/></g></g></svg>